<svg xmlns="http://www.w3.org/2000/svg" xmlns:xlink="http://www.w3.org/1999/xlink" width="230.03" height="44.8" viewBox="0 0 230.03 44.8">
  <defs>
    <style>
      .a {
        fill: none;
      }

      .b {
        clip-path: url(#a);
      }

      .c, .s {
        fill: #007081;
      }

      .d, .g {
        fill: #f07f3f;
      }

      .e {
        fill: #f8aa0e;
      }

      .e, .f, .g, .h, .i, .j, .k, .l, .m, .n, .o, .p, .q, .r, .s, .t, .u, .v {
        fill-rule: evenodd;
      }

      .f {
        fill: #ffd003;
      }

      .h {
        fill: #e62f34;
      }

      .i {
        fill: #c6c0b4;
      }

      .j {
        fill: #8c8b82;
      }

      .k {
        fill: #b9cd76;
      }

      .l {
        fill: #7bb929;
      }

      .m {
        fill: #289b38;
      }

      .n {
        fill: #00843b;
      }

      .o {
        fill: #0e5ea9;
      }

      .p {
        fill: #17b9da;
      }

      .q {
        fill: #a8589e;
      }

      .r {
        fill: #592679;
      }

      .t {
        fill: #61a6b0;
      }

      .u {
        fill: #5b57a2;
      }

      .v {
        fill: #8ba4d6;
      }
    </style>
    <clipPath id="a" transform="translate(-0.03 0.03)">
      <rect class="a" x="0.03" y="-0.03" width="232.02" height="44.8"/>
    </clipPath>
  </defs>
  <title>Montefiore Institute</title>
  <g class="b">
    <g class="b">
      <path class="c" d="M86,6h1.72v4.38c0,1.21.34,1.66,1.13,1.66s1.08-.3,1.63-1V6h1.72v7.34h-1.4l-.14-1.08h0a3,3,0,0,1-2.36,1.26c-1.57,0-2.26-1.06-2.26-2.92Z" transform="translate(-0.03 0.03)"/>
      <path class="c" d="M94.18,6H95.6l.12,1h.06a3.42,3.42,0,0,1,2.41-1.17c1.56,0,2.25,1.06,2.25,2.92v4.6H98.72V9c0-1.21-.34-1.66-1.15-1.66a2.34,2.34,0,0,0-1.67.91v5.13H94.18Z" transform="translate(-0.03 0.03)"/>
      <rect class="c" x="102.63" y="6.03" width="1.72" height="7.34"/>
      <path class="c" d="M105.66,6h1.75l1.16,3.81c.2.72.42,1.47.62,2.21h.06c.2-.74.41-1.49.62-2.21L111,6h1.66l-2.5,7.34h-2Z" transform="translate(-0.03 0.03)"/>
      <path class="c" d="M116.6,5.82c2,0,3,1.44,3,3.48a4.11,4.11,0,0,1-.07.81h-4.67a2.11,2.11,0,0,0,2.17,2.08,3,3,0,0,0,1.71-.54l.58,1.08a4.66,4.66,0,0,1-2.51.79,3.54,3.54,0,0,1-3.62-3.84A3.58,3.58,0,0,1,116.6,5.82ZM118.14,9c0-1.17-.5-1.87-1.5-1.87S115,7.79,114.88,9Z" transform="translate(-0.03 0.03)"/>
      <path class="c" d="M121.43,6h1.42L123,7.3h0a2.51,2.51,0,0,1,2.08-1.48,1.91,1.91,0,0,1,.84.15l-.3,1.5a2.24,2.24,0,0,0-.76-.12c-.58,0-1.29.4-1.74,1.51v4.48h-1.71Z" transform="translate(-0.03 0.03)"/>
      <path class="c" d="M127,11.4a3.27,3.27,0,0,0,2,.82c.8,0,1.17-.37,1.17-.88s-.79-.88-1.57-1.18c-1-.36-2.06-.92-2.06-2.14s1-2.2,2.67-2.2a4,4,0,0,1,2.44.88l-.79,1a2.76,2.76,0,0,0-1.62-.63c-.73,0-1.07.35-1.07.81s.73.81,1.52,1.09c1,.37,2.11.85,2.11,2.23s-1,2.27-2.86,2.27a4.62,4.62,0,0,1-2.78-1Z" transform="translate(-0.03 0.03)"/>
      <rect class="c" x="133.5" y="6.03" width="1.72" height="7.34"/>
      <path class="c" d="M137.9,7.36h-1.05V6.08L138,6l.2-2h1.44V6h1.87V7.36h-1.87v3.5c0,.87.33,1.28,1,1.28a2.06,2.06,0,0,0,.76-.16l.3,1.27a4.51,4.51,0,0,1-1.49.27c-1.71,0-2.33-1.08-2.33-2.66Z" transform="translate(-0.03 0.03)"/>
      <path class="c" d="M146,5.82c2,0,3,1.44,3,3.48a3.38,3.38,0,0,1-.08.81h-4.66a2.11,2.11,0,0,0,2.17,2.08,3,3,0,0,0,1.7-.54l.58,1.08a4.64,4.64,0,0,1-2.51.79,3.54,3.54,0,0,1-3.62-3.84A3.58,3.58,0,0,1,146,5.82ZM147.52,9c0-1.17-.49-1.87-1.49-1.87s-1.62.64-1.77,1.87Z" transform="translate(-0.03 0.03)"/>
      <path class="c" d="M102.46,3.93a1.06,1.06,0,1,1,1.06,1,1,1,0,0,1-1.06-1" transform="translate(-0.03 0.03)"/>
      <path class="c" d="M133.34,3.93a1.06,1.06,0,1,1,1.06,1,1,1,0,0,1-1.06-1" transform="translate(-0.03 0.03)"/>
      <polygon class="c" points="146.13 5.16 144.86 5.16 146.19 2.97 147.91 2.97 146.13 5.16"/>
      <polygon class="c" points="45.26 3 47.6 3 47.6 11.39 51.69 11.39 51.69 13.36 45.26 13.36 45.26 3"/>
      <rect class="c" x="53.22" y="3" width="2.33" height="10.35"/>
      <polygon class="c" points="57.39 3 63.86 3 63.86 4.97 59.72 4.97 59.72 7.05 63.24 7.05 63.24 9.01 59.72 9.01 59.72 11.39 64.02 11.39 64.02 13.36 57.39 13.36 57.39 3"/>
      <polygon class="c" points="58.16 0 60.64 0 61.93 1.91 60.07 1.91 58.16 0"/>
      <path class="c" d="M64.84,8.22a6.13,6.13,0,0,1,.41-2.3,5.17,5.17,0,0,1,1.09-1.71A4.84,4.84,0,0,1,68,3.15a5.44,5.44,0,0,1,2-.36,4.06,4.06,0,0,1,1.9.41,5.17,5.17,0,0,1,1.31.93L71.86,5.58a3.27,3.27,0,0,0-.8-.57A2.43,2.43,0,0,0,70,4.8a2.52,2.52,0,0,0-2,.89,3.1,3.1,0,0,0-.56,1,4.64,4.64,0,0,0-.2,1.4A3.82,3.82,0,0,0,68,10.62a2.67,2.67,0,0,0,2.19.88,2.15,2.15,0,0,0,.62-.08,1.18,1.18,0,0,0,.49-.24V9.41H69.54V7.5h3.78v4.76a4.48,4.48,0,0,1-1.46.89,5.16,5.16,0,0,1-2,.37,5.72,5.72,0,0,1-2-.34,4.55,4.55,0,0,1-1.59-1,4.68,4.68,0,0,1-1.08-1.66,6.24,6.24,0,0,1-.39-2.29" transform="translate(-0.03 0.03)"/>
      <polygon class="c" points="74.82 3 81.3 3 81.3 4.97 77.15 4.97 77.15 7.05 80.68 7.05 80.68 9.01 77.15 9.01 77.15 11.39 81.46 11.39 81.46 13.36 74.82 13.36 74.82 3"/>
      <g>
        <path class="d" d="M45.35,20.38h3.27l2.29,6.15.82,2.39h.08l.82-2.39,2.23-6.15h3.27V34.07H55.24v-5c0-.34,0-.71,0-1.12s.06-.81.1-1.22.09-.82.13-1.22.08-.77.12-1.1h-.08l-1.11,3.17-2.12,5.31H51.08L49,27.56l-1.09-3.17H47.8c0,.33.09.7.13,1.1s.08.8.12,1.22.08.82.11,1.22,0,.78,0,1.12v5H45.35Z" transform="translate(-0.03 0.03)"/>
        <path class="d" d="M60.48,28.86a6,6,0,0,1,.42-2.32A5.05,5.05,0,0,1,62,24.83a4.84,4.84,0,0,1,1.62-1.06,5.07,5.07,0,0,1,1.91-.37,4.91,4.91,0,0,1,1.9.37,4.84,4.84,0,0,1,1.62,1.06,5,5,0,0,1,1.12,1.71,6.62,6.62,0,0,1,0,4.64,5,5,0,0,1-1.12,1.71A4.84,4.84,0,0,1,67.46,34a5.1,5.1,0,0,1-1.9.37A5.27,5.27,0,0,1,63.65,34,4.84,4.84,0,0,1,62,32.89a5.05,5.05,0,0,1-1.13-1.71A6,6,0,0,1,60.48,28.86Zm3.17,0A4.17,4.17,0,0,0,64.13,31a1.55,1.55,0,0,0,1.43.8A1.57,1.57,0,0,0,67,31a4.17,4.17,0,0,0,.48-2.16A4.17,4.17,0,0,0,67,26.7a1.55,1.55,0,0,0-1.43-.8,1.53,1.53,0,0,0-1.43.8A4.17,4.17,0,0,0,63.65,28.86Z" transform="translate(-0.03 0.03)"/>
        <path class="d" d="M72.74,23.65h2.52L75.47,25h.09A8.8,8.8,0,0,1,77,23.87a3.63,3.63,0,0,1,1.87-.47,2.77,2.77,0,0,1,2.46,1.11,5.39,5.39,0,0,1,.77,3.09v6.47H79V28a2.87,2.87,0,0,0-.3-1.56,1.12,1.12,0,0,0-1-.42,1.84,1.84,0,0,0-1,.27,5.83,5.83,0,0,0-.92.74v7H72.74Z" transform="translate(-0.03 0.03)"/>
        <path class="d" d="M85.17,26.07H83.75V23.78l1.59-.13.36-2.77h2.56v2.77h2.5v2.42h-2.5v4.17a1.77,1.77,0,0,0,.37,1.27,1.27,1.27,0,0,0,1,.39,2.37,2.37,0,0,0,.52-.06,2.88,2.88,0,0,0,.47-.15l.48,2.25c-.28.08-.61.17-1,.25a5.82,5.82,0,0,1-1.33.13,4.12,4.12,0,0,1-1.65-.3A2.88,2.88,0,0,1,86,33.2a3.52,3.52,0,0,1-.63-1.27,6.41,6.41,0,0,1-.2-1.64Z" transform="translate(-0.03 0.03)"/>
        <path class="d" d="M92.19,28.86a5.94,5.94,0,0,1,.42-2.28,5.13,5.13,0,0,1,1.1-1.72A4.82,4.82,0,0,1,99,23.78a3.91,3.91,0,0,1,1.39,1,4.58,4.58,0,0,1,.83,1.58,7,7,0,0,1,.27,2c0,.28,0,.53,0,.76s-.06.41-.09.54H95.17a2.61,2.61,0,0,0,.93,1.73,2.87,2.87,0,0,0,1.77.54,4.29,4.29,0,0,0,2.25-.7l1,1.87a6.61,6.61,0,0,1-1.77.86,6.28,6.28,0,0,1-1.92.32A5.87,5.87,0,0,1,95.38,34a4.6,4.6,0,0,1-1.68-1.07,4.93,4.93,0,0,1-1.12-1.71A6.35,6.35,0,0,1,92.19,28.86Zm6.71-1.07a2.48,2.48,0,0,0-.4-1.47,1.51,1.51,0,0,0-1.34-.57,1.92,1.92,0,0,0-1.29.49,2.54,2.54,0,0,0-.72,1.55Z" transform="translate(-0.03 0.03)"/>
        <path class="d" d="M109.55,21.74a3.21,3.21,0,0,0-1.07-.21,1.13,1.13,0,0,0-.88.35,1.67,1.67,0,0,0-.32,1.14v.63h1.87v2.42h-1.87v8h-3.09v-8h-1.38V23.78l1.38-.11v-.56a6.06,6.06,0,0,1,.2-1.56,3.54,3.54,0,0,1,.66-1.28,3.24,3.24,0,0,1,1.2-.86A4.55,4.55,0,0,1,108,19.1a5.35,5.35,0,0,1,1.18.12c.36.09.66.17.89.25Z" transform="translate(-0.03 0.03)"/>
        <path class="d" d="M112.36,22.12a1.85,1.85,0,0,1-1.28-.45,1.48,1.48,0,0,1-.5-1.17,1.44,1.44,0,0,1,.5-1.15,2.1,2.1,0,0,1,2.57,0,1.47,1.47,0,0,1,.5,1.15,1.51,1.51,0,0,1-.5,1.17A1.84,1.84,0,0,1,112.36,22.12Zm-1.53,1.53h3.08V34.07h-3.08Z" transform="translate(-0.03 0.03)"/>
        <path class="d" d="M116,28.86a6,6,0,0,1,.42-2.32,5.05,5.05,0,0,1,1.13-1.71,4.84,4.84,0,0,1,1.62-1.06,5.07,5.07,0,0,1,1.91-.37,4.91,4.91,0,0,1,1.9.37,4.84,4.84,0,0,1,1.62,1.06,5,5,0,0,1,1.12,1.71,6.62,6.62,0,0,1,0,4.64,5,5,0,0,1-1.12,1.71A4.84,4.84,0,0,1,123,34a5.1,5.1,0,0,1-1.9.37,5.27,5.27,0,0,1-1.91-.37,4.84,4.84,0,0,1-1.62-1.06,5.05,5.05,0,0,1-1.13-1.71A6,6,0,0,1,116,28.86Zm3.17,0a4.17,4.17,0,0,0,.48,2.16,1.55,1.55,0,0,0,1.43.8,1.57,1.57,0,0,0,1.43-.8,4.17,4.17,0,0,0,.48-2.16,4.17,4.17,0,0,0-.48-2.16,1.55,1.55,0,0,0-1.43-.8,1.53,1.53,0,0,0-1.43.8A4.17,4.17,0,0,0,119.18,28.86Z" transform="translate(-0.03 0.03)"/>
        <path class="d" d="M128.27,23.65h2.52l.21,1.83h.09a4.06,4.06,0,0,1,1.36-1.58,3,3,0,0,1,1.6-.5,4.67,4.67,0,0,1,.72.05,2.64,2.64,0,0,1,.52.16l-.51,2.67a4.64,4.64,0,0,0-.54-.13,3.49,3.49,0,0,0-.59,0,2.27,2.27,0,0,0-1.23.42A3,3,0,0,0,131.36,28v6.05h-3.09Z" transform="translate(-0.03 0.03)"/>
        <path class="d" d="M136,28.86a5.94,5.94,0,0,1,.42-2.28,5.46,5.46,0,0,1,1.1-1.72,4.8,4.8,0,0,1,1.57-1.08,4.6,4.6,0,0,1,1.82-.38,4.71,4.71,0,0,1,1.95.38,3.79,3.79,0,0,1,1.38,1,4.42,4.42,0,0,1,.83,1.58,7,7,0,0,1,.27,2,5.92,5.92,0,0,1,0,.76c0,.23,0,.41-.08.54H139a2.58,2.58,0,0,0,.94,1.73,2.87,2.87,0,0,0,1.77.54,4.34,4.34,0,0,0,2.25-.7l1,1.87a6.82,6.82,0,0,1-1.78.86,6.23,6.23,0,0,1-1.92.32,6,6,0,0,1-2.08-.37,4.78,4.78,0,0,1-1.68-1.07,5.06,5.06,0,0,1-1.11-1.71A6.15,6.15,0,0,1,136,28.86Zm6.72-1.07a2.48,2.48,0,0,0-.4-1.47,1.52,1.52,0,0,0-1.34-.57,1.92,1.92,0,0,0-1.29.49,2.54,2.54,0,0,0-.73,1.55Z" transform="translate(-0.03 0.03)"/>
        <path class="d" d="M152.1,20.38h3.11V34.07H152.1Z" transform="translate(-0.03 0.03)"/>
        <path class="d" d="M158.17,23.65h2.52L160.9,25H161a8.8,8.8,0,0,1,1.47-1.1,3.68,3.68,0,0,1,1.87-.47,2.78,2.78,0,0,1,2.47,1.11,5.39,5.39,0,0,1,.77,3.09v6.47h-3.09V28a2.76,2.76,0,0,0-.31-1.56,1.11,1.11,0,0,0-1-.42,1.84,1.84,0,0,0-1,.27,5.41,5.41,0,0,0-.92.74v7h-3.09Z" transform="translate(-0.03 0.03)"/>
        <path class="d" d="M170.64,30.94a6.78,6.78,0,0,0,1.37.82,3.39,3.39,0,0,0,1.32.27,1.77,1.77,0,0,0,1-.23.76.76,0,0,0,.31-.65.64.64,0,0,0-.18-.45,1.69,1.69,0,0,0-.48-.37,6.23,6.23,0,0,0-.68-.31l-.78-.3c-.32-.13-.64-.27-1-.44a4.51,4.51,0,0,1-.88-.62,3.25,3.25,0,0,1-.65-.86,2.47,2.47,0,0,1-.25-1.15,3.1,3.1,0,0,1,.28-1.32,2.9,2.9,0,0,1,.81-1,4,4,0,0,1,1.26-.66,5.28,5.28,0,0,1,1.64-.24,5.08,5.08,0,0,1,2.1.41,8.31,8.31,0,0,1,1.57.91l-1.38,1.85a5.41,5.41,0,0,0-1.11-.65,2.89,2.89,0,0,0-1.1-.23c-.78,0-1.17.27-1.17.82a.59.59,0,0,0,.17.43,1.44,1.44,0,0,0,.45.32,5,5,0,0,0,.65.29l.76.28c.34.13.67.27,1,.43a3.92,3.92,0,0,1,.9.6,2.74,2.74,0,0,1,.67.87,2.87,2.87,0,0,1,.25,1.23,3.1,3.1,0,0,1-.28,1.32,2.87,2.87,0,0,1-.81,1.06,4.12,4.12,0,0,1-1.35.71,5.77,5.77,0,0,1-1.85.27,6.28,6.28,0,0,1-2.11-.4,6.63,6.63,0,0,1-1.87-1.05Z" transform="translate(-0.03 0.03)"/>
        <path class="d" d="M179.9,26.07h-1.43V23.78l1.6-.13.35-2.77H183v2.77h2.49v2.42H183v4.17a1.82,1.82,0,0,0,.36,1.27,1.29,1.29,0,0,0,1,.39,2.22,2.22,0,0,0,.51-.06,2.72,2.72,0,0,0,.48-.15l.48,2.25c-.28.08-.61.17-1,.25a5.78,5.78,0,0,1-1.32.13,4.12,4.12,0,0,1-1.65-.3,2.88,2.88,0,0,1-1.11-.82,3.23,3.23,0,0,1-.63-1.27,6.41,6.41,0,0,1-.2-1.64Z" transform="translate(-0.03 0.03)"/>
        <path class="d" d="M189.05,22.12a1.87,1.87,0,0,1-1.28-.45,1.51,1.51,0,0,1-.5-1.17,1.47,1.47,0,0,1,.5-1.15,1.86,1.86,0,0,1,1.28-.44,1.81,1.81,0,0,1,1.29.44,1.47,1.47,0,0,1,.5,1.15,1.51,1.51,0,0,1-.5,1.17A1.81,1.81,0,0,1,189.05,22.12Zm-1.53,1.53h3.09V34.07h-3.09Z" transform="translate(-0.03 0.03)"/>
        <path class="d" d="M193.73,26.07h-1.42V23.78l1.59-.13.36-2.77h2.56v2.77h2.5v2.42h-2.5v4.17a1.77,1.77,0,0,0,.37,1.27,1.27,1.27,0,0,0,1,.39,2.37,2.37,0,0,0,.52-.06,2.88,2.88,0,0,0,.47-.15l.48,2.25c-.28.08-.6.17-1,.25a5.82,5.82,0,0,1-1.33.13,4,4,0,0,1-1.64-.3,2.84,2.84,0,0,1-1.12-.82,3.52,3.52,0,0,1-.63-1.27,6.41,6.41,0,0,1-.2-1.64Z" transform="translate(-0.03 0.03)"/>
        <path class="d" d="M201.25,23.65h3.09v6.07a2.72,2.72,0,0,0,.31,1.55,1.16,1.16,0,0,0,1,.42,1.74,1.74,0,0,0,1-.27,4.24,4.24,0,0,0,.86-.88V23.65h3.08V34.07h-2.52l-.23-1.45h-.06a5.93,5.93,0,0,1-1.44,1.25,3.56,3.56,0,0,1-1.84.45A2.76,2.76,0,0,1,202,33.2a5.37,5.37,0,0,1-.77-3.08Z" transform="translate(-0.03 0.03)"/>
        <path class="d" d="M213.7,26.07h-1.43V23.78l1.6-.13.36-2.77h2.56v2.77h2.5v2.42h-2.5v4.17a1.82,1.82,0,0,0,.36,1.27,1.29,1.29,0,0,0,1,.39,2.22,2.22,0,0,0,.51-.06,2.72,2.72,0,0,0,.48-.15l.48,2.25c-.28.08-.61.17-1,.25a5.72,5.72,0,0,1-1.32.13,4.12,4.12,0,0,1-1.65-.3,2.88,2.88,0,0,1-1.11-.82,3.23,3.23,0,0,1-.63-1.27,6.41,6.41,0,0,1-.2-1.64Z" transform="translate(-0.03 0.03)"/>
        <path class="d" d="M220.71,28.86a5.94,5.94,0,0,1,.42-2.28,5.46,5.46,0,0,1,1.1-1.72,4.8,4.8,0,0,1,1.57-1.08,4.86,4.86,0,0,1,3.77,0,3.79,3.79,0,0,1,1.38,1,4.42,4.42,0,0,1,.83,1.58,7,7,0,0,1,.28,2,5.81,5.81,0,0,1-.05.76,4,4,0,0,1-.08.54h-6.24a2.62,2.62,0,0,0,.94,1.73,2.87,2.87,0,0,0,1.77.54,4.34,4.34,0,0,0,2.25-.7l1,1.87a6.67,6.67,0,0,1-1.78.86,6.23,6.23,0,0,1-1.92.32A6,6,0,0,1,223.9,34a4.78,4.78,0,0,1-1.68-1.07,5.06,5.06,0,0,1-1.11-1.71A6.35,6.35,0,0,1,220.71,28.86Zm6.72-1.07a2.48,2.48,0,0,0-.4-1.47,1.51,1.51,0,0,0-1.34-.57,1.92,1.92,0,0,0-1.29.49,2.6,2.6,0,0,0-.73,1.55Z" transform="translate(-0.03 0.03)"/>
      </g>
      <polygon class="e" points="0 23.94 9.03 18.73 0 13.51 0 23.94"/>
      <polygon class="f" points="0 23.94 9.03 29.16 9.03 18.73 0 23.94"/>
      <polygon class="g" points="0 34.37 9.03 29.16 0 23.94 0 34.37"/>
      <polygon class="h" points="0 34.37 9.03 39.59 9.03 29.16 0 34.37"/>
      <polygon class="i" points="0 3.08 0 13.51 9.03 8.3 0 3.08 0 3.08"/>
      <polygon class="j" points="0 13.51 9.03 18.73 9.03 8.3 0 13.51"/>
      <polygon class="k" points="18.07 13.51 9.03 8.3 9.03 18.73 18.07 13.51"/>
      <polygon class="l" points="9.03 18.73 18.07 23.94 18.07 13.51 9.03 18.73"/>
      <polygon class="m" points="18.07 23.94 9.03 18.73 9.03 29.16 18.07 23.94"/>
      <polygon class="n" points="9.03 29.16 18.07 34.37 18.07 23.94 9.03 29.16"/>
      <polygon class="o" points="9.03 39.59 18.07 44.8 18.07 34.37 9.03 39.59"/>
      <polygon class="p" points="18.07 34.37 9.03 29.16 9.03 39.59 18.07 34.37"/>
      <polygon class="q" points="18.07 34.37 27.1 39.59 27.1 29.16 18.07 34.37"/>
      <polygon class="r" points="18.07 44.8 27.1 39.59 18.07 34.37 18.07 44.8"/>
      <polygon class="s" points="27.1 18.73 36.13 13.51 27.1 8.3 27.1 18.73"/>
      <polygon class="t" points="36.13 3.08 27.1 8.3 36.13 13.51 36.13 3.08 36.13 3.08"/>
      <polygon class="u" points="27.1 39.59 36.13 34.37 27.1 29.16 27.1 39.59"/>
      <polygon class="v" points="27.1 29.16 36.13 34.37 36.13 23.94 27.1 29.16"/>
    </g>
  </g>
</svg>
